<svg width="47" height="44" viewBox="0 0 47 44" fill="none" xmlns="http://www.w3.org/2000/svg">
<mask id="mask0_6_71" style="mask-type:luminance" maskUnits="userSpaceOnUse" x="0" y="0" width="47" height="44">
<path d="M0 0H47V44H0V0Z" fill="white"/>
</mask>
<g mask="url(#mask0_6_71)">
<mask id="mask1_6_71" style="mask-type:luminance" maskUnits="userSpaceOnUse" x="0" y="0" width="47" height="44">
<path d="M23.5 0C10.5211 0 0 9.84958 0 22C0 34.1504 10.5211 44 23.5 44C36.4789 44 47 34.1504 47 22C47 9.84958 36.4789 0 23.5 0Z" fill="white"/>
</mask>
<g mask="url(#mask1_6_71)">
<path d="M0 0H47V44H0V0Z" fill="#1D0055"/>
</g>
</g>
<mask id="mask2_6_71" style="mask-type:luminance" maskUnits="userSpaceOnUse" x="13" y="5" width="21" height="22">
<path d="M13.0229 5.40987H33.6442V26.3206H13.0229V5.40987Z" fill="white"/>
</mask>
<g mask="url(#mask2_6_71)">
<path d="M22.5878 26.07H33.4647V25.0632H22.5878C22.2271 25.0647 21.8697 25.0357 21.514 24.9776C21.1582 24.9196 20.8122 24.831 20.4728 24.7149C20.135 24.5988 19.8102 24.4551 19.4985 24.2856C19.1868 24.1144 18.8947 23.9189 18.6205 23.7004C18.3464 23.4804 18.095 23.2406 17.8666 22.9793C17.6381 22.7181 17.4374 22.44 17.2611 22.1436C17.0865 21.8488 16.9396 21.5417 16.8237 21.2224C16.7062 20.9031 16.6214 20.5761 16.5659 20.2431L14.0886 5.48473L13.0262 5.64056L15.5035 20.3989C15.5672 20.7915 15.6683 21.1765 15.8054 21.5524C15.9425 21.9282 16.1155 22.2888 16.3211 22.6371C16.5267 22.9839 16.765 23.3108 17.0326 23.6179C17.3019 23.9265 17.5973 24.2092 17.9204 24.4674C18.2419 24.7256 18.5862 24.9547 18.9534 25.1549C19.319 25.3565 19.7009 25.5246 20.0991 25.6621C20.4989 25.7981 20.9069 25.9004 21.3247 25.9692C21.7424 26.0379 22.1635 26.0715 22.5878 26.07Z" fill="#FFEEDE"/>
</g>
<mask id="mask3_6_71" style="mask-type:luminance" maskUnits="userSpaceOnUse" x="13" y="24" width="21" height="15">
<path d="M13.0229 24.7561H33.9771V38.5565H13.0229V24.7561Z" fill="white"/>
</mask>
<g mask="url(#mask3_6_71)">
<path d="M14.4215 38.5153L19.0432 28.8139C19.2194 28.4442 19.4479 28.105 19.727 27.7964C20.006 27.4862 20.3259 27.2204 20.6866 26.9958C21.0472 26.7712 21.434 26.5986 21.8469 26.4779C22.2598 26.3572 22.6824 26.2915 23.1149 26.2839C23.5474 26.2747 23.9717 26.3221 24.3911 26.4275C24.8089 26.5314 25.2022 26.6887 25.5726 26.898C25.9431 27.1074 26.2743 27.361 26.5681 27.6589C26.8618 27.9553 27.105 28.2868 27.2976 28.6489L32.5524 38.5153H33.9771L28.4383 28.1157C28.1902 27.6528 27.8802 27.2311 27.5048 26.8492C27.1295 26.4687 26.7052 26.1449 26.2319 25.876C25.757 25.6086 25.2544 25.4085 24.7191 25.274C24.1838 25.1411 23.6404 25.08 23.0872 25.0907C22.5339 25.1014 21.9937 25.1854 21.465 25.3397C20.9379 25.4955 20.4434 25.7155 19.9816 26.0028C19.5214 26.2885 19.1117 26.6307 18.7543 27.0249C18.3969 27.4205 18.1065 27.8544 17.8812 28.328L13.0262 38.5153H14.4215Z" fill="#FFEEDE"/>
</g>
</svg>
