<svg xmlns="http://www.w3.org/2000/svg" xmlns:xlink="http://www.w3.org/1999/xlink" width="500" zoomAndPan="magnify"  viewBox="0 0 500 500" height="500" 

preserveAspectRatio="xMidYMid meet" version="1.0"><defs><g/><clipPath id="4faaad9404"><path d="M 0 5.507812 L 111.96875 5.507812 L 111.96875 83.269531 L 0 83.269531 Z M 0 5.507812 " clip-rule="nonzero"/></clipPath></defs><g clip-path="url(#4faaad9404)"><path fill="#523a28" d="M -0.652344 5.507812 L 112.039062 5.507812 L 112.039062 83.269531 L -0.652344 83.269531 Z M -0.652344 5.507812 " fill-opacity="1" fill-rule="nonzero"/></g><g fill="#faad2a" fill-opacity="1"><g transform="translate(1.916445, 53.047992)"><g><path d="M 2.046875 0 L 2.046875 -17.46875 L 8.0625 -17.46875 L 8.0625 -14.953125 L 8.140625 -14.953125 C 8.179688 -15.035156 8.253906 -15.144531 8.359375 -15.28125 C 8.460938 -15.414062 8.679688 -15.65625 9.015625 -16 C 9.359375 -16.34375 9.722656 -16.648438 10.109375 -16.921875 C 10.492188 -17.191406 10.992188 -17.4375 11.609375 -17.65625 C 12.222656 -17.875 12.847656 -17.984375 13.484375 -17.984375 C 14.140625 -17.984375 14.785156 -17.890625 15.421875 -17.703125 C 16.054688 -17.523438 16.519531 -17.34375 16.8125 -17.15625 L 17.296875 -16.890625 L 14.78125 -11.78125 C 14.03125 -12.414062 12.984375 -12.734375 11.640625 -12.734375 C 10.910156 -12.734375 10.285156 -12.570312 9.765625 -12.25 C 9.242188 -11.9375 8.875 -11.550781 8.65625 -11.09375 C 8.445312 -10.644531 8.296875 -10.257812 8.203125 -9.9375 C 8.109375 -9.625 8.0625 -9.375 8.0625 -9.1875 L 8.0625 0 Z M 2.046875 0 "/></g></g></g><g fill="#faad2a" fill-opacity="1"><g transform="translate(22.276171, 53.047992)"><g><path d="M 7.734375 -17.46875 L 7.734375 -9.15625 C 7.734375 -7.4375 7.992188 -6.210938 8.515625 -5.484375 C 9.035156 -4.753906 9.921875 -4.390625 11.171875 -4.390625 C 12.421875 -4.390625 13.304688 -4.753906 13.828125 -5.484375 C 14.347656 -6.210938 14.609375 -7.4375 14.609375 -9.15625 L 14.609375 -17.46875 L 20.625 -17.46875 L 20.625 -7.6875 C 20.625 -4.789062 19.867188 -2.695312 18.359375 -1.40625 C 16.859375 -0.125 14.460938 0.515625 11.171875 0.515625 C 7.878906 0.515625 5.476562 -0.125 3.96875 -1.40625 C 2.457031 -2.695312 1.703125 -4.789062 1.703125 -7.6875 L 1.703125 -17.46875 Z M 7.734375 -17.46875 "/></g></g></g><g fill="#faad2a" fill-opacity="1"><g transform="translate(48.014963, 53.047992)"><g><path d="M 2.046875 0 L 2.046875 -17.46875 L 8.0625 -17.46875 L 8.0625 -15.625 L 8.140625 -15.625 C 9.703125 -17.195312 11.367188 -17.984375 13.140625 -17.984375 C 14.410156 -17.984375 15.601562 -17.71875 16.71875 -17.1875 C 17.832031 -16.664062 18.671875 -15.863281 19.234375 -14.78125 C 21.003906 -16.914062 22.9375 -17.984375 25.03125 -17.984375 C 26.882812 -17.984375 28.476562 -17.457031 29.8125 -16.40625 C 31.15625 -15.363281 31.828125 -13.734375 31.828125 -11.515625 L 31.828125 0 L 25.8125 0 L 25.8125 -9.875 C 25.8125 -10.800781 25.554688 -11.578125 25.046875 -12.203125 C 24.535156 -12.828125 23.769531 -13.140625 22.75 -13.140625 C 21.863281 -13.140625 21.1875 -12.875 20.71875 -12.34375 C 20.25 -11.8125 19.992188 -11.171875 19.953125 -10.421875 L 19.953125 0 L 13.921875 0 L 13.921875 -9.875 C 13.921875 -10.800781 13.664062 -11.578125 13.15625 -12.203125 C 12.644531 -12.828125 11.878906 -13.140625 10.859375 -13.140625 C 9.929688 -13.140625 9.234375 -12.847656 8.765625 -12.265625 C 8.296875 -11.691406 8.0625 -11.007812 8.0625 -10.21875 L 8.0625 0 Z M 2.046875 0 "/></g></g></g><g fill="#faad2a" fill-opacity="1"><g transform="translate(84.954452, 53.047992)"><g><path d="M 3.234375 -2.15625 C 1.597656 -3.9375 0.78125 -6.117188 0.78125 -8.703125 C 0.78125 -11.296875 1.597656 -13.488281 3.234375 -15.28125 C 4.867188 -17.082031 6.945312 -17.984375 9.46875 -17.984375 C 11.78125 -17.984375 13.6875 -17.253906 15.1875 -15.796875 L 15.1875 -17.46875 L 21.21875 -17.46875 L 21.21875 0 L 15.25 0 L 15.25 -1.96875 L 15.1875 -1.96875 C 13.6875 -0.3125 11.78125 0.515625 9.46875 0.515625 C 6.945312 0.515625 4.867188 -0.375 3.234375 -2.15625 Z M 8.359375 -11.671875 C 7.578125 -10.898438 7.1875 -9.910156 7.1875 -8.703125 C 7.1875 -7.503906 7.5625 -6.523438 8.3125 -5.765625 C 9.0625 -5.003906 10.046875 -4.625 11.265625 -4.625 C 12.453125 -4.625 13.425781 -5.007812 14.1875 -5.78125 C 14.945312 -6.5625 15.328125 -7.539062 15.328125 -8.71875 C 15.328125 -9.914062 14.929688 -10.898438 14.140625 -11.671875 C 13.359375 -12.441406 12.398438 -12.828125 11.265625 -12.828125 C 10.109375 -12.828125 9.140625 -12.441406 8.359375 -11.671875 Z M 8.359375 -11.671875 "/></g></g></g></svg>