<svg xmlns="http://www.w3.org/2000/svg" xmlns:xlink="http://www.w3.org/1999/xlink" width="100" zoomAndPan="magnify" viewBox="0 0 375 374.999991" height="100" preserveAspectRatio="xMidYMid meet" version="1.0"><defs><g/><clipPath id="c74279dfa9"><path d="M 99 88 L 278.777344 88 L 278.777344 207 L 99 207 Z M 99 88 " clip-rule="nonzero"/></clipPath><clipPath id="99154edd2c"><path d="M 152 154 L 187 154 L 187 256.660156 L 152 256.660156 Z M 152 154 " clip-rule="nonzero"/></clipPath></defs><rect x="-37.5" width="450" fill="#ffffff" y="-37.499999" height="449.999989" fill-opacity="1"/><rect x="-37.5" width="450" fill="#ffffff" y="-37.499999" height="449.999989" fill-opacity="1"/><path fill="#ffffff" d="M 262.316406 239.910156 L 233.558594 144.71875 C 233.101562 143.203125 233.960938 141.605469 235.480469 141.144531 C 236.996094 140.6875 238.597656 141.546875 239.058594 143.0625 L 239.078125 143.136719 L 265.230469 239.074219 C 265.449219 239.882812 264.972656 240.710938 264.164062 240.933594 C 263.375 241.148438 262.554688 240.691406 262.316406 239.910156 " fill-opacity="1" fill-rule="nonzero"/><path fill="#000000" d="M 262.320312 239.910156 L 263.359375 239.597656 L 234.597656 144.40625 C 234.546875 144.234375 234.519531 144.058594 234.519531 143.890625 C 234.519531 143.507812 234.644531 143.136719 234.867188 142.835938 C 235.089844 142.53125 235.402344 142.300781 235.792969 142.183594 C 235.96875 142.128906 236.140625 142.105469 236.308594 142.105469 C 236.691406 142.105469 237.0625 142.230469 237.363281 142.453125 C 237.667969 142.671875 237.902344 142.984375 238.019531 143.375 L 239.058594 143.0625 L 238.015625 143.363281 L 238.035156 143.4375 L 239.078125 143.136719 L 238.03125 143.421875 L 264.183594 239.359375 L 264.199219 239.472656 C 264.199219 239.5625 264.167969 239.65625 264.109375 239.730469 C 264.054688 239.804688 263.976562 239.859375 263.878906 239.886719 L 263.882812 239.886719 L 263.769531 239.902344 C 263.679688 239.902344 263.589844 239.871094 263.515625 239.816406 C 263.441406 239.761719 263.386719 239.6875 263.359375 239.59375 L 263.359375 239.597656 L 261.28125 240.222656 C 261.449219 240.777344 261.792969 241.242188 262.230469 241.5625 C 262.667969 241.882812 263.203125 242.066406 263.769531 242.066406 C 263.988281 242.066406 264.21875 242.039062 264.449219 241.976562 L 264.453125 241.976562 C 265.027344 241.820312 265.511719 241.476562 265.84375 241.035156 C 266.175781 240.589844 266.367188 240.046875 266.367188 239.472656 C 266.367188 239.246094 266.335938 239.015625 266.277344 238.789062 L 240.125 142.851562 L 240.121094 142.835938 L 240.097656 142.761719 L 240.09375 142.75 C 239.839844 141.898438 239.3125 141.191406 238.644531 140.703125 C 237.976562 140.214844 237.160156 139.941406 236.308594 139.9375 C 235.929688 139.9375 235.542969 139.996094 235.164062 140.109375 L 235.167969 140.109375 C 234.316406 140.363281 233.605469 140.886719 233.117188 141.554688 C 232.628906 142.222656 232.351562 143.039062 232.351562 143.890625 C 232.351562 144.269531 232.40625 144.652344 232.523438 145.03125 L 261.28125 240.222656 L 262.320312 239.910156 " fill-opacity="1" fill-rule="nonzero"/><path fill="#ffffff" d="M 210.652344 152.558594 L 199.84375 227.597656 C 199.722656 228.421875 198.957031 228.996094 198.128906 228.878906 C 197.3125 228.757812 196.742188 228.011719 196.839844 227.199219 L 206.046875 151.945312 C 206.203125 150.675781 207.363281 149.769531 208.636719 149.925781 C 209.910156 150.082031 210.816406 151.238281 210.660156 152.511719 L 210.652344 152.558594 " fill-opacity="1" fill-rule="nonzero"/><path fill="#000000" d="M 210.652344 152.558594 L 209.578125 152.402344 L 198.769531 227.441406 C 198.753906 227.550781 198.703125 227.636719 198.625 227.703125 C 198.546875 227.769531 198.449219 227.808594 198.34375 227.808594 L 198.269531 227.800781 L 198.128906 228.878906 L 198.285156 227.804688 C 198.175781 227.789062 198.085938 227.738281 198.019531 227.660156 C 197.953125 227.582031 197.914062 227.484375 197.914062 227.378906 L 197.917969 227.335938 L 197.917969 227.328125 L 207.125 152.078125 C 207.164062 151.761719 207.3125 151.496094 207.535156 151.300781 C 207.757812 151.105469 208.042969 150.988281 208.351562 150.992188 C 208.410156 150.988281 208.453125 150.992188 208.488281 150.996094 L 208.503906 151 C 208.820312 151.039062 209.085938 151.1875 209.28125 151.410156 C 209.476562 151.632812 209.59375 151.917969 209.59375 152.226562 C 209.59375 152.273438 209.589844 152.328125 209.582031 152.386719 L 210.660156 152.511719 L 209.585938 152.371094 L 209.578125 152.417969 L 210.652344 152.558594 L 209.578125 152.402344 L 210.652344 152.558594 L 211.726562 152.699219 L 211.734375 152.652344 L 211.738281 152.636719 C 211.753906 152.5 211.761719 152.363281 211.761719 152.226562 C 211.761719 151.375 211.445312 150.582031 210.910156 149.980469 C 210.382812 149.375 209.625 148.953125 208.765625 148.851562 L 208.636719 149.925781 L 208.785156 148.851562 C 208.628906 148.832031 208.480469 148.824219 208.351562 148.824219 C 207.5 148.824219 206.707031 149.140625 206.101562 149.671875 C 205.5 150.203125 205.074219 150.957031 204.972656 151.816406 L 195.765625 227.066406 L 195.765625 227.058594 C 195.75 227.171875 195.746094 227.277344 195.746094 227.378906 C 195.746094 228.015625 195.980469 228.613281 196.375 229.070312 C 196.765625 229.527344 197.328125 229.855469 197.972656 229.949219 L 197.988281 229.949219 C 198.101562 229.964844 198.222656 229.972656 198.34375 229.972656 C 198.980469 229.972656 199.582031 229.742188 200.039062 229.347656 C 200.496094 228.957031 200.824219 228.394531 200.914062 227.75 L 211.726562 152.710938 L 211.726562 152.699219 L 210.652344 152.558594 " fill-opacity="1" fill-rule="nonzero"/><path fill="#ffffff" d="M 244.21875 142.367188 L 195.261719 157.097656 C 194.460938 157.339844 193.617188 156.886719 193.375 156.085938 C 193.140625 155.296875 193.578125 154.464844 194.355469 154.210938 L 242.960938 138.363281 C 244.0625 138.003906 245.25 138.605469 245.609375 139.707031 C 245.972656 140.808594 245.367188 141.996094 244.265625 142.355469 L 244.21875 142.367188 " fill-opacity="1" fill-rule="nonzero"/><path fill="#000000" d="M 244.21875 142.367188 L 243.90625 141.332031 L 194.949219 156.0625 L 194.953125 156.058594 L 194.828125 156.078125 C 194.734375 156.078125 194.644531 156.050781 194.570312 155.996094 C 194.496094 155.941406 194.441406 155.867188 194.414062 155.773438 L 194.414062 155.777344 L 194.394531 155.648438 C 194.394531 155.5625 194.425781 155.472656 194.476562 155.398438 C 194.53125 155.324219 194.601562 155.273438 194.691406 155.242188 L 243.296875 139.390625 C 243.40625 139.355469 243.511719 139.339844 243.613281 139.339844 C 243.824219 139.339844 244.03125 139.410156 244.203125 139.53125 C 244.375 139.65625 244.507812 139.824219 244.582031 140.042969 C 244.613281 140.148438 244.628906 140.253906 244.628906 140.359375 C 244.628906 140.570312 244.5625 140.777344 244.4375 140.949219 C 244.316406 141.121094 244.144531 141.253906 243.925781 141.324219 L 244.265625 142.355469 L 243.957031 141.316406 L 243.90625 141.332031 L 244.21875 142.367188 L 244.527344 143.40625 L 244.574219 143.394531 L 244.601562 143.386719 C 245.269531 143.167969 245.824219 142.742188 246.203125 142.207031 C 246.585938 141.675781 246.800781 141.03125 246.800781 140.359375 C 246.800781 140.03125 246.75 139.695312 246.640625 139.371094 C 246.421875 138.703125 246 138.148438 245.464844 137.769531 C 244.929688 137.386719 244.285156 137.175781 243.613281 137.175781 C 243.28125 137.175781 242.945312 137.226562 242.621094 137.332031 L 194.019531 153.183594 C 193.476562 153.359375 193.023438 153.703125 192.714844 154.140625 C 192.402344 154.574219 192.226562 155.097656 192.226562 155.648438 C 192.226562 155.898438 192.265625 156.152344 192.335938 156.398438 C 192.507812 156.957031 192.851562 157.421875 193.292969 157.742188 C 193.730469 158.0625 194.265625 158.246094 194.828125 158.246094 C 195.070312 158.246094 195.324219 158.210938 195.574219 158.136719 L 244.53125 143.40625 L 244.527344 143.40625 L 244.21875 142.367188 " fill-opacity="1" fill-rule="nonzero"/><path fill="#ffffff" d="M 277.484375 192.179688 C 277.71875 188.710938 278.332031 181.605469 274.546875 178.582031 C 270.761719 175.558594 244.523438 165.226562 211.21875 163.714844 C 211.21875 163.714844 204.65625 91.890625 186.992188 90.882812 C 169.332031 89.875 96.558594 85.660156 100.59375 99.265625 C 104.632812 112.875 116.996094 173.863281 118.511719 184.195312 C 120.023438 194.53125 119.265625 198.8125 136.171875 200.324219 C 153.078125 201.839844 169.226562 204.105469 175.027344 205.617188 C 180.832031 207.128906 236.421875 200.75 248.644531 198.828125 C 261.074219 196.875 277.234375 195.953125 277.484375 192.179688 " fill-opacity="1" fill-rule="nonzero"/><g clip-path="url(#c74279dfa9)"><path fill="#000000" d="M 277.484375 192.179688 L 278.566406 192.253906 C 278.636719 191.167969 278.75 189.6875 278.75 188.070312 C 278.75 186.300781 278.621094 184.363281 278.125 182.535156 C 277.878906 181.625 277.539062 180.734375 277.066406 179.917969 C 276.597656 179.101562 275.992188 178.351562 275.222656 177.738281 C 274.925781 177.5 274.570312 177.261719 274.128906 177.003906 C 272.5 176.039062 269.757812 174.777344 266.023438 173.367188 C 254.835938 169.152344 234.824219 163.703125 211.265625 162.632812 L 211.214844 163.714844 L 212.296875 163.617188 C 212.292969 163.59375 210.652344 145.613281 206.789062 127.453125 C 204.855469 118.367188 202.371094 109.242188 199.21875 102.242188 C 197.636719 98.742188 195.894531 95.765625 193.910156 93.574219 C 192.914062 92.480469 191.855469 91.578125 190.714844 90.925781 C 189.574219 90.273438 188.34375 89.875 187.054688 89.800781 C 179.648438 89.378906 162.53125 88.390625 145.433594 88.390625 C 134.140625 88.390625 122.855469 88.816406 114.320312 90.140625 C 110.042969 90.804688 106.460938 91.679688 103.835938 92.902344 C 102.527344 93.515625 101.445312 94.21875 100.644531 95.085938 C 100.246094 95.519531 99.917969 96 99.695312 96.527344 C 99.46875 97.050781 99.347656 97.625 99.347656 98.207031 C 99.347656 98.660156 99.421875 99.121094 99.554688 99.574219 C 100.546875 102.917969 102.078125 109.28125 103.828125 117.0625 C 106.449219 128.738281 109.570312 143.640625 112.175781 156.585938 C 113.480469 163.058594 114.65625 169.042969 115.574219 173.890625 C 116.492188 178.734375 117.160156 182.453125 117.4375 184.351562 C 117.8125 186.914062 118.046875 189.128906 118.472656 191.09375 C 118.789062 192.5625 119.21875 193.902344 119.929688 195.109375 C 120.460938 196.011719 121.152344 196.828125 122.03125 197.53125 C 123.359375 198.589844 125.085938 199.390625 127.359375 200.011719 C 129.632812 200.632812 132.46875 201.082031 136.074219 201.40625 C 144.511719 202.160156 152.757812 203.101562 159.617188 204.042969 C 163.042969 204.515625 166.125 204.988281 168.699219 205.433594 C 171.277344 205.878906 173.355469 206.300781 174.753906 206.667969 C 175.175781 206.773438 175.660156 206.832031 176.257812 206.871094 C 176.851562 206.910156 177.554688 206.929688 178.363281 206.929688 C 181.824219 206.929688 187.242188 206.597656 193.628906 206.070312 C 203.203125 205.285156 214.933594 204.066406 225.300781 202.882812 C 235.671875 201.695312 244.667969 200.546875 248.8125 199.898438 C 254.984375 198.925781 262.132812 198.207031 267.8125 197.253906 C 270.65625 196.773438 273.128906 196.242188 274.996094 195.550781 C 275.933594 195.203125 276.722656 194.820312 277.359375 194.316406 C 277.675781 194.0625 277.957031 193.777344 278.171875 193.429688 C 278.390625 193.089844 278.539062 192.679688 278.566406 192.25 L 276.402344 192.109375 C 276.398438 192.152344 276.390625 192.191406 276.335938 192.277344 C 276.246094 192.4375 275.941406 192.722656 275.40625 193.007812 C 274.480469 193.511719 272.925781 194.003906 271.011719 194.433594 C 268.128906 195.082031 264.410156 195.613281 260.460938 196.128906 C 256.511719 196.648438 252.328125 197.152344 248.476562 197.757812 C 245.761719 198.183594 240.855469 198.839844 234.820312 199.574219 C 225.773438 200.683594 214.179688 201.980469 203.582031 203 C 198.28125 203.511719 193.234375 203.953125 188.878906 204.265625 C 184.527344 204.578125 180.859375 204.765625 178.363281 204.765625 C 177.585938 204.765625 176.925781 204.746094 176.402344 204.710938 C 175.878906 204.679688 175.484375 204.621094 175.300781 204.570312 C 173.796875 204.179688 171.683594 203.75 169.070312 203.296875 C 161.242188 201.945312 148.976562 200.382812 136.269531 199.246094 C 132.089844 198.875 129.035156 198.328125 126.835938 197.59375 C 125.183594 197.042969 124.019531 196.394531 123.167969 195.65625 C 122.527344 195.097656 122.050781 194.488281 121.664062 193.773438 C 121.082031 192.707031 120.710938 191.386719 120.417969 189.765625 C 120.125 188.144531 119.90625 186.238281 119.582031 184.039062 C 119.199219 181.410156 118.140625 175.667969 116.703125 168.273438 C 114.550781 157.191406 111.546875 142.433594 108.699219 129.167969 C 107.277344 122.535156 105.890625 116.273438 104.675781 111.027344 C 103.457031 105.78125 102.40625 101.558594 101.636719 98.960938 C 101.554688 98.679688 101.519531 98.433594 101.519531 98.207031 C 101.519531 97.914062 101.574219 97.648438 101.6875 97.378906 C 101.902344 96.875 102.355469 96.335938 103.109375 95.800781 C 104.421875 94.859375 106.605469 93.996094 109.398438 93.308594 C 113.59375 92.265625 119.15625 91.570312 125.386719 91.144531 C 131.617188 90.71875 138.519531 90.554688 145.433594 90.554688 C 162.453125 90.554688 179.527344 91.539062 186.929688 91.964844 C 187.851562 92.015625 188.742188 92.296875 189.636719 92.804688 C 191.316406 93.757812 192.988281 95.5625 194.550781 98.035156 C 197.289062 102.359375 199.675781 108.671875 201.664062 115.667969 C 204.65625 126.167969 206.78125 138.21875 208.148438 147.632812 C 208.832031 152.339844 209.332031 156.386719 209.65625 159.257812 C 209.816406 160.691406 209.9375 161.832031 210.019531 162.613281 C 210.058594 163.003906 210.089844 163.304688 210.105469 163.507812 C 210.128906 163.710938 210.136719 163.8125 210.136719 163.8125 C 210.183594 164.351562 210.625 164.769531 211.167969 164.796875 C 227.71875 165.546875 242.53125 168.492188 253.65625 171.625 C 259.21875 173.191406 263.863281 174.800781 267.332031 176.199219 C 269.066406 176.902344 270.507812 177.546875 271.617188 178.105469 C 272.171875 178.382812 272.644531 178.640625 273.023438 178.863281 C 273.402344 179.089844 273.691406 179.289062 273.871094 179.429688 C 274.398438 179.851562 274.832031 180.378906 275.191406 181 C 275.726562 181.925781 276.082031 183.070312 276.296875 184.296875 C 276.511719 185.523438 276.585938 186.828125 276.582031 188.070312 C 276.585938 189.589844 276.476562 191.007812 276.402344 192.109375 L 277.484375 192.179688 " fill-opacity="1" fill-rule="nonzero"/></g><path fill="#000000" d="M 105.558594 96.664062 C 108.765625 95.082031 109.425781 94.984375 114.976562 107.417969 C 120.527344 119.847656 127.59375 149.585938 130.285156 162.1875 C 132.976562 174.789062 132.976562 183.1875 147.609375 185.878906 C 162.246094 188.566406 187.851562 193.097656 186.972656 199.316406 C 186.089844 205.535156 173.347656 201.332031 161.066406 199.316406 C 148.789062 197.300781 125.238281 197.972656 124.226562 190.246094 C 123.21875 182.515625 116.492188 144.378906 111.949219 128.417969 C 107.410156 112.457031 100.898438 98.960938 105.558594 96.664062 " fill-opacity="1" fill-rule="nonzero"/><path fill="#ffffff" d="M 182.488281 254.507812 L 153.730469 159.316406 C 153.273438 157.800781 154.132812 156.199219 155.648438 155.742188 C 157.167969 155.285156 158.769531 156.144531 159.226562 157.660156 L 159.25 157.734375 L 185.398438 253.671875 C 185.617188 254.480469 185.144531 255.308594 184.335938 255.527344 C 183.542969 255.742188 182.726562 255.285156 182.488281 254.507812 " fill-opacity="1" fill-rule="nonzero"/><g clip-path="url(#99154edd2c)"><path fill="#000000" d="M 182.488281 254.507812 L 183.527344 254.191406 L 154.769531 159.003906 C 154.714844 158.828125 154.691406 158.65625 154.691406 158.488281 C 154.691406 158.105469 154.816406 157.734375 155.039062 157.429688 C 155.261719 157.128906 155.570312 156.898438 155.960938 156.78125 L 155.964844 156.78125 C 156.136719 156.726562 156.3125 156.703125 156.480469 156.703125 C 156.859375 156.703125 157.230469 156.828125 157.535156 157.046875 C 157.839844 157.269531 158.070312 157.582031 158.1875 157.972656 L 159.226562 157.660156 L 158.183594 157.960938 L 158.207031 158.035156 L 159.25 157.734375 L 158.203125 158.019531 L 184.351562 253.957031 L 184.367188 254.070312 C 184.367188 254.160156 184.335938 254.253906 184.28125 254.328125 C 184.222656 254.402344 184.148438 254.457031 184.050781 254.484375 L 184.054688 254.480469 L 183.941406 254.496094 C 183.851562 254.496094 183.757812 254.46875 183.683594 254.414062 C 183.609375 254.355469 183.554688 254.285156 183.527344 254.191406 L 182.488281 254.507812 L 181.453125 254.820312 C 181.621094 255.375 181.964844 255.839844 182.402344 256.160156 C 182.839844 256.480469 183.375 256.664062 183.941406 256.664062 C 184.164062 256.664062 184.390625 256.632812 184.617188 256.574219 L 184.625 256.574219 C 185.199219 256.414062 185.679688 256.074219 186.015625 255.628906 C 186.347656 255.1875 186.539062 254.640625 186.539062 254.070312 C 186.539062 253.84375 186.507812 253.613281 186.445312 253.386719 L 160.296875 157.449219 L 160.289062 157.433594 L 160.269531 157.359375 L 160.265625 157.347656 C 160.007812 156.496094 159.484375 155.785156 158.816406 155.300781 C 158.148438 154.8125 157.332031 154.535156 156.480469 154.535156 C 156.097656 154.535156 155.714844 154.589844 155.335938 154.707031 C 154.484375 154.960938 153.773438 155.484375 153.289062 156.152344 C 152.796875 156.820312 152.523438 157.636719 152.523438 158.488281 C 152.523438 158.867188 152.578125 159.25 152.691406 159.628906 L 181.453125 254.820312 L 182.488281 254.507812 " fill-opacity="1" fill-rule="nonzero"/></g><path fill="#ffffff" d="M 130.824219 167.15625 L 120.011719 242.191406 C 119.890625 243.019531 119.125 243.59375 118.296875 243.472656 C 117.480469 243.355469 116.910156 242.605469 117.007812 241.792969 L 126.21875 166.542969 C 126.371094 165.273438 127.53125 164.367188 128.804688 164.523438 C 130.078125 164.679688 130.984375 165.835938 130.828125 167.105469 L 130.824219 167.15625 " fill-opacity="1" fill-rule="nonzero"/><path fill="#000000" d="M 130.824219 167.15625 L 129.75 167 L 118.9375 242.035156 C 118.921875 242.148438 118.871094 242.230469 118.792969 242.300781 C 118.714844 242.367188 118.617188 242.40625 118.511719 242.40625 L 118.4375 242.398438 L 118.296875 243.472656 L 118.453125 242.402344 C 118.34375 242.386719 118.253906 242.332031 118.1875 242.257812 C 118.121094 242.175781 118.082031 242.078125 118.082031 241.976562 L 118.085938 241.933594 L 118.085938 241.925781 L 127.292969 166.675781 C 127.332031 166.355469 127.484375 166.09375 127.703125 165.894531 C 127.925781 165.699219 128.214844 165.585938 128.519531 165.585938 C 128.578125 165.585938 128.621094 165.589844 128.652344 165.59375 L 128.671875 165.597656 C 128.992188 165.636719 129.257812 165.785156 129.453125 166.007812 C 129.648438 166.230469 129.761719 166.515625 129.761719 166.820312 C 129.761719 166.871094 129.757812 166.921875 129.75 166.980469 L 130.828125 167.105469 L 129.753906 166.96875 L 129.746094 167.015625 L 130.824219 167.15625 L 129.75 167 L 130.824219 167.15625 L 131.898438 167.296875 L 131.90625 167.246094 L 131.90625 167.230469 C 131.921875 167.097656 131.929688 166.960938 131.929688 166.820312 C 131.929688 165.972656 131.613281 165.179688 131.082031 164.574219 C 130.550781 163.972656 129.796875 163.550781 128.9375 163.445312 L 128.804688 164.523438 L 128.957031 163.449219 C 128.796875 163.425781 128.648438 163.421875 128.519531 163.421875 C 127.667969 163.421875 126.875 163.738281 126.273438 164.269531 C 125.667969 164.796875 125.246094 165.554688 125.140625 166.410156 L 115.933594 241.660156 L 115.933594 241.652344 C 115.917969 241.765625 115.914062 241.875 115.914062 241.976562 C 115.914062 242.613281 116.148438 243.207031 116.542969 243.667969 C 116.933594 244.125 117.496094 244.453125 118.140625 244.546875 L 118.15625 244.546875 C 118.269531 244.5625 118.386719 244.570312 118.511719 244.570312 C 119.152344 244.570312 119.746094 244.335938 120.207031 243.945312 C 120.664062 243.550781 120.992188 242.988281 121.085938 242.34375 L 131.894531 167.308594 L 131.898438 167.296875 L 130.824219 167.15625 " fill-opacity="1" fill-rule="nonzero"/><path fill="#ffffff" d="M 164.390625 156.964844 L 115.429688 171.695312 C 114.632812 171.9375 113.785156 171.480469 113.546875 170.683594 C 113.308594 169.894531 113.746094 169.0625 114.523438 168.808594 L 163.128906 152.960938 C 164.234375 152.597656 165.421875 153.203125 165.78125 154.304688 C 166.140625 155.40625 165.539062 156.59375 164.433594 156.953125 L 164.390625 156.964844 " fill-opacity="1" fill-rule="nonzero"/><path fill="#000000" d="M 164.390625 156.964844 L 164.074219 155.929688 L 115.117188 170.65625 L 115.121094 170.65625 L 114.992188 170.675781 C 114.90625 170.675781 114.8125 170.644531 114.738281 170.589844 C 114.664062 170.535156 114.613281 170.464844 114.582031 170.367188 L 114.582031 170.371094 L 114.566406 170.246094 C 114.566406 170.15625 114.59375 170.070312 114.644531 169.996094 C 114.699219 169.921875 114.769531 169.867188 114.859375 169.839844 L 163.464844 153.988281 C 163.574219 153.953125 163.679688 153.9375 163.78125 153.9375 C 163.996094 153.9375 164.203125 154.007812 164.375 154.128906 C 164.546875 154.253906 164.679688 154.421875 164.75 154.640625 C 164.785156 154.746094 164.800781 154.851562 164.800781 154.957031 C 164.800781 155.164062 164.734375 155.375 164.609375 155.546875 C 164.484375 155.71875 164.316406 155.851562 164.097656 155.921875 L 164.433594 156.953125 L 164.121094 155.914062 L 164.078125 155.925781 L 164.390625 156.964844 L 164.699219 158.003906 L 164.746094 157.988281 L 164.773438 157.980469 C 165.441406 157.761719 165.996094 157.335938 166.375 156.804688 C 166.753906 156.273438 166.96875 155.625 166.96875 154.957031 C 166.96875 154.628906 166.917969 154.292969 166.8125 153.96875 C 166.59375 153.296875 166.167969 152.746094 165.636719 152.367188 C 165.101562 151.984375 164.457031 151.773438 163.78125 151.769531 C 163.453125 151.769531 163.117188 151.824219 162.792969 151.929688 L 114.1875 167.78125 C 113.644531 167.953125 113.191406 168.300781 112.882812 168.734375 C 112.570312 169.167969 112.394531 169.695312 112.394531 170.246094 C 112.394531 170.492188 112.433594 170.746094 112.507812 170.992188 L 112.507812 170.996094 C 112.675781 171.550781 113.019531 172.019531 113.457031 172.339844 C 113.898438 172.660156 114.433594 172.839844 114.992188 172.839844 C 115.238281 172.839844 115.492188 172.804688 115.742188 172.734375 L 115.742188 172.730469 L 164.703125 158.003906 L 164.390625 156.964844 " fill-opacity="1" fill-rule="nonzero"/><g fill="#100f0d" fill-opacity="1"><g transform="translate(131.73095, 282.035791)"><g><path d="M 11.796875 -8.078125 L 5.578125 -8.078125 L 5.578125 0 L 1.59375 0 L 1.59375 -19.78125 L 12.546875 -19.78125 L 12.546875 -16.453125 L 5.578125 -16.453125 L 5.578125 -11.390625 L 11.796875 -11.390625 Z M 11.796875 -8.078125 "/></g></g></g><g fill="#100f0d" fill-opacity="1"><g transform="translate(150.333516, 282.035791)"><g><path d="M 14.453125 -19.78125 L 14.453125 -6.09375 C 14.441406 -4.03125 13.878906 -2.453125 12.765625 -1.359375 C 11.648438 -0.273438 10.050781 0.265625 7.96875 0.265625 C 5.84375 0.265625 4.21875 -0.285156 3.09375 -1.390625 C 1.976562 -2.492188 1.421875 -4.09375 1.421875 -6.1875 L 1.421875 -19.78125 L 5.453125 -19.78125 L 5.453125 -6.171875 C 5.453125 -5.046875 5.628906 -4.242188 5.984375 -3.765625 C 6.347656 -3.285156 7.003906 -3.046875 7.953125 -3.046875 C 8.910156 -3.046875 9.566406 -3.28125 9.921875 -3.75 C 10.273438 -4.226562 10.457031 -5.007812 10.46875 -6.09375 L 10.46875 -19.78125 Z M 14.453125 -19.78125 "/></g></g></g><g fill="#100f0d" fill-opacity="1"><g transform="translate(171.598749, 282.035791)"><g><path d="M 7.578125 -7.234375 L 5.59375 -7.234375 L 5.59375 0 L 1.609375 0 L 1.609375 -19.78125 L 7.96875 -19.78125 C 9.976562 -19.78125 11.523438 -19.257812 12.609375 -18.21875 C 13.703125 -17.1875 14.25 -15.71875 14.25 -13.8125 C 14.25 -11.175781 13.296875 -9.332031 11.390625 -8.28125 L 14.859375 -0.1875 L 14.859375 0 L 10.5625 0 Z M 5.59375 -10.5625 L 7.875 -10.5625 C 8.664062 -10.5625 9.257812 -10.820312 9.65625 -11.34375 C 10.0625 -11.875 10.265625 -12.585938 10.265625 -13.484375 C 10.265625 -15.460938 9.488281 -16.453125 7.9375 -16.453125 L 5.59375 -16.453125 Z M 5.59375 -10.5625 "/></g></g></g><g fill="#100f0d" fill-opacity="1"><g transform="translate(192.374921, 282.035791)"><g><path d="M 15.421875 0 L 11.421875 0 L 5.578125 -12.96875 L 5.578125 0 L 1.59375 0 L 1.59375 -19.78125 L 5.578125 -19.78125 L 11.4375 -6.796875 L 11.4375 -19.78125 L 15.421875 -19.78125 Z M 15.421875 0 "/></g></g></g><g fill="#100f0d" fill-opacity="1"><g transform="translate(214.781296, 282.035791)"><g><path d="M 5.765625 0 L 1.765625 0 L 1.765625 -19.78125 L 5.765625 -19.78125 Z M 5.765625 0 "/></g></g></g><g fill="#100f0d" fill-opacity="1"><g transform="translate(227.678151, 282.035791)"><g><path d="M 7.78125 -12.984375 L 10.453125 -19.78125 L 15.03125 -19.78125 L 10.375 -9.96875 L 15.140625 0 L 10.5 0 L 7.78125 -6.921875 L 5.078125 0 L 0.453125 0 L 5.203125 -9.96875 L 0.546875 -19.78125 L 5.125 -19.78125 Z M 7.78125 -12.984375 "/></g></g></g></svg>