<svg width="33" height="33" viewBox="0 0 33 33" fill="none" xmlns="http://www.w3.org/2000/svg">
<mask id="mask0_6_71" style="mask-type:luminance" maskUnits="userSpaceOnUse" x="0" y="0" width="33" height="33">
<path d="M0.958313 0.270844H32.9583V32.2708H0.958313V0.270844Z" fill="white"/>
</mask>
<g mask="url(#mask0_6_71)">
<mask id="mask1_6_71" style="mask-type:luminance" maskUnits="userSpaceOnUse" x="0" y="0" width="33" height="33">
<path d="M16.9583 0.270844C8.12165 0.270844 0.958313 7.43418 0.958313 16.2708C0.958313 25.1075 8.12165 32.2708 16.9583 32.2708C25.795 32.2708 32.9583 25.1075 32.9583 16.2708C32.9583 7.43418 25.795 0.270844 16.9583 0.270844Z" fill="white"/>
</mask>
<g mask="url(#mask1_6_71)">
<path d="M0.958313 0.270844H32.9583V32.2708H0.958313V0.270844Z" fill="#1D0055"/>
</g>
</g>
<mask id="mask2_6_71" style="mask-type:luminance" maskUnits="userSpaceOnUse" x="9" y="4" width="15" height="16">
<path d="M9.82498 4.20529H23.865V19.4131H9.82498V4.20529Z" fill="white"/>
</mask>
<g mask="url(#mask2_6_71)">
<path d="M16.3372 19.2308H23.7428V18.4986H16.3372C16.0917 18.4997 15.8483 18.4786 15.6061 18.4364C15.3639 18.3942 15.1283 18.3297 14.8972 18.2453C14.6672 18.1608 14.4461 18.0564 14.2339 17.9331C14.0217 17.8086 13.8228 17.6664 13.6361 17.5075C13.4494 17.3475 13.2783 17.1731 13.1228 16.9831C12.9672 16.7931 12.8305 16.5908 12.7105 16.3753C12.5917 16.1608 12.4917 15.9375 12.4128 15.7053C12.3328 15.4731 12.275 15.2353 12.2372 14.9931L10.5505 4.25974L9.82721 4.37307L11.5139 15.1064C11.5572 15.392 11.6261 15.672 11.7194 15.9453C11.8128 16.2186 11.9305 16.4808 12.0705 16.7342C12.2105 16.9864 12.3728 17.2242 12.555 17.4475C12.7383 17.672 12.9394 17.8775 13.1594 18.0653C13.3783 18.2531 13.6128 18.4197 13.8628 18.5653C14.1117 18.712 14.3717 18.8342 14.6428 18.9342C14.915 19.0331 15.1928 19.1075 15.4772 19.1575C15.7617 19.2075 16.0483 19.232 16.3372 19.2308Z" fill="#FFEEDE"/>
</g>
<mask id="mask3_6_71" style="mask-type:luminance" maskUnits="userSpaceOnUse" x="9" y="18" width="16" height="11">
<path d="M9.82498 18.2753H24.0916V28.312H9.82498V18.2753Z" fill="white"/>
</mask>
<g mask="url(#mask3_6_71)">
<path d="M10.7772 28.2819L13.9239 21.2264C14.0439 20.9575 14.1994 20.7108 14.3894 20.4864C14.5794 20.2608 14.7972 20.0675 15.0428 19.9042C15.2883 19.7408 15.5517 19.6153 15.8328 19.5275C16.1139 19.4397 16.4017 19.3919 16.6961 19.3864C16.9905 19.3797 17.2794 19.4142 17.565 19.4908C17.8494 19.5664 18.1172 19.6808 18.3694 19.8331C18.6217 19.9853 18.8472 20.1697 19.0472 20.3864C19.2472 20.6019 19.4128 20.8431 19.5439 21.1064L23.1217 28.2819H24.0917L20.3205 20.7186C20.1517 20.3819 19.9405 20.0753 19.685 19.7975C19.4294 19.5208 19.1405 19.2853 18.8183 19.0897C18.495 18.8953 18.1528 18.7497 17.7883 18.6519C17.4239 18.5553 17.0539 18.5108 16.6772 18.5186C16.3005 18.5264 15.9328 18.5875 15.5728 18.6997C15.2139 18.8131 14.8772 18.9731 14.5628 19.1819C14.2494 19.3897 13.9705 19.6386 13.7272 19.9253C13.4839 20.2131 13.2861 20.5286 13.1328 20.8731L9.82721 28.2819H10.7772Z" fill="#FFEEDE"/>
</g>
</svg>
